<?xml version="1.0" standalone="no"?><!DOCTYPE svg PUBLIC "-//W3C//DTD SVG 1.1//EN" "http://www.w3.org/Graphics/SVG/1.1/DTD/svg11.dtd"><svg t="1570170117389" class="icon" viewBox="0 0 1024 1024" version="1.1" xmlns="http://www.w3.org/2000/svg" p-id="5726" xmlns:xlink="http://www.w3.org/1999/xlink" width="256" height="256"><defs><style type="text/css"></style></defs><path d="M897.856 79.936c0-5.888-1.28-11.52-3.392-16.64a48.64 48.64 0 0 0-8.384-13.504c-1.024-1.152-1.408-2.496-2.496-3.648-1.024-0.96-2.24-1.344-3.264-2.24a43.84 43.84 0 0 0-13.76-8.512 41.6 41.6 0 0 0-16.768-3.584l-0.64 0.128-0.832-0.128h-454.4c-0.384 0.128-0.64 0.384-1.152 0.384a50.048 50.048 0 0 0-19.072 3.456h-0.128a51.008 51.008 0 0 0-17.024 11.072L140.672 262.528a48.512 48.512 0 0 0-11.456 18.944c-0.064 0.512-0.064 1.088-0.32 1.6a51.392 51.392 0 0 0-1.856 20.416v0.128c-0.256 1.984-1.024 3.776-1.024 5.696v633.344l0.128 0.64-0.128 0.768c0 6.08 1.344 11.84 3.648 17.088 1.984 5.248 5.12 9.664 8.768 13.888 0.768 0.96 1.216 1.984 1.856 2.752 1.152 1.088 2.496 1.536 3.776 2.624l0.704 0.448 0.384 0.256a49.536 49.536 0 0 0 12.672 7.744 43.52 43.52 0 0 0 16.32 3.392l0.64-0.128 0.512 0.128h673.664l0.64-0.128 0.576 0.128a45.888 45.888 0 0 0 29.376-11.392c1.408-1.216 3.136-1.728 4.288-3.072a11.52 11.52 0 0 0 1.856-2.752 46.208 46.208 0 0 0 12.352-30.784l-0.128-0.768 0.128-0.704V81.28l-0.128-0.704-0.064-0.64zM374.016 165.12v102.848H271.04l56.896-56.96 46.08-45.888zM801.856 896H222.016V364.032h198.784l0.64-0.128 0.576 0.128a45.952 45.952 0 0 0 29.504-11.456c1.28-1.088 3.008-1.728 4.16-3.008a11.52 11.52 0 0 0 1.856-2.752 45.696 45.696 0 0 0 12.416-30.784c0-0.256-0.192-0.512-0.192-0.832 0-0.256 0.192-0.384 0.192-0.64V127.936h332.032V896h-0.128z m-92.288-360c0 26.496-22.144 48-49.344 48H363.776c-27.328 0-49.344-21.504-49.344-48s22.144-48 49.344-48h296.512c27.136 0 49.28 21.504 49.28 48z m0 192c0 26.496-22.144 48-49.344 48H363.776c-27.328 0-49.344-21.504-49.344-48s22.144-48 49.344-48h296.512c27.136 0 49.28 21.504 49.28 48z" p-id="5727" fill="#BFCBD9"></path></svg>